<svg xmlns="http://www.w3.org/2000/svg" xmlns:xlink="http://www.w3.org/1999/xlink" width="350pt" height="211pt" viewBox="0 0 350 211"><g id="graph0" class="graph" transform="scale(1 1) rotate(0) translate(4 207)"><title>%3</title><polygon fill="#fff" stroke="transparent" points="-4 4 -4 -207 346 -207 346 4 -4 4"/><text x="171" y="-7.8" font-family="Times,serif" font-size="14" text-anchor="middle">Dominators</text><g id="node1" class="node"><title>r</title><ellipse cx="135" cy="-185" fill="none" stroke="#000" rx="27" ry="18"/><text x="135" y="-181.3" font-family="Times,serif" font-size="14" text-anchor="middle">r</text></g><g id="node2" class="node"><title>a</title><ellipse cx="27" cy="-113" fill="none" stroke="#000" rx="27" ry="18"/><text x="27" y="-109.3" font-family="Times,serif" font-size="14" text-anchor="middle">a</text></g><g id="edge1" class="edge"><title>r-&gt;a</title><path fill="none" stroke="#000" d="M116.19,-171.81C99,-160.67 73.38,-144.06 54.01,-131.5"/><polygon fill="#000" stroke="#000" points="55.89 -128.56 45.6 -126.05 52.08 -134.43 55.89 -128.56"/></g><g id="node3" class="node"><title>b</title><ellipse cx="99" cy="-113" fill="none" stroke="#000" rx="27" ry="18"/><text x="99" y="-109.3" font-family="Times,serif" font-size="14" text-anchor="middle">b</text></g><g id="edge2" class="edge"><title>r-&gt;b</title><path fill="none" stroke="#000" d="M126.65,-167.76C122.29,-159.28 116.85,-148.71 111.96,-139.2"/><polygon fill="#000" stroke="#000" points="114.99 -137.44 107.3 -130.15 108.77 -140.64 114.99 -137.44"/></g><g id="node4" class="node"><title>c</title><ellipse cx="171" cy="-113" fill="none" stroke="#000" rx="27" ry="18"/><text x="171" y="-109.3" font-family="Times,serif" font-size="14" text-anchor="middle">c</text></g><g id="edge3" class="edge"><title>r-&gt;c</title><path fill="none" stroke="#000" d="M143.35,-167.76C147.71,-159.28 153.15,-148.71 158.04,-139.2"/><polygon fill="#000" stroke="#000" points="161.23 -140.64 162.7 -130.15 155.01 -137.44 161.23 -140.64"/></g><g id="node5" class="node"><title>d</title><ellipse cx="243" cy="-113" fill="none" stroke="#000" rx="27" ry="18"/><text x="243" y="-109.3" font-family="Times,serif" font-size="14" text-anchor="middle">d</text></g><g id="edge4" class="edge"><title>r-&gt;d</title><path fill="none" stroke="#000" d="M153.81,-171.81C171,-160.67 196.62,-144.06 215.99,-131.5"/><polygon fill="#000" stroke="#000" points="217.92 -134.43 224.4 -126.05 214.11 -128.56 217.92 -134.43"/></g><g id="node6" class="node"><title>e</title><ellipse cx="171" cy="-41" fill="none" stroke="#000" rx="27" ry="18"/><text x="171" y="-37.3" font-family="Times,serif" font-size="14" text-anchor="middle">e</text></g><g id="edge5" class="edge"><title>d-&gt;e</title><path fill="none" stroke="#000" d="M228.43,-97.83C218.25,-87.94 204.48,-74.55 192.97,-63.36"/><polygon fill="#000" stroke="#000" points="195.41 -60.85 185.8 -56.38 190.53 -65.87 195.41 -60.85"/></g><g id="node7" class="node"><title>f</title><ellipse cx="243" cy="-41" fill="none" stroke="#000" rx="27" ry="18"/><text x="243" y="-37.3" font-family="Times,serif" font-size="14" text-anchor="middle">f</text></g><g id="edge6" class="edge"><title>d-&gt;f</title><path fill="none" stroke="#000" d="M243,-94.7C243,-86.98 243,-77.71 243,-69.11"/><polygon fill="#000" stroke="#000" points="246.5 -69.1 243 -59.1 239.5 -69.1 246.5 -69.1"/></g><g id="node8" class="node"><title>g</title><ellipse cx="315" cy="-41" fill="none" stroke="#000" rx="27" ry="18"/><text x="315" y="-37.3" font-family="Times,serif" font-size="14" text-anchor="middle">g</text></g><g id="edge7" class="edge"><title>d-&gt;g</title><path fill="none" stroke="#000" d="M257.57,-97.83C267.75,-87.94 281.52,-74.55 293.03,-63.36"/><polygon fill="#000" stroke="#000" points="295.47 -65.87 300.2 -56.38 290.59 -60.85 295.47 -65.87"/></g></g></svg>