<svg xmlns="http://www.w3.org/2000/svg" xmlns:xlink="http://www.w3.org/1999/xlink" width="244pt" height="516" viewBox="0 0 244 387"><g id="graph0" class="graph" transform="scale(1 1) rotate(0) translate(4 383)"><title>%3</title><polygon fill="#fff" stroke="transparent" points="-4 4 -4 -383 240 -383 240 4 -4 4"/><text x="118" y="-7.8" font-family="Times,serif" font-size="14" text-anchor="middle">Owners</text><g id="clust1" class="cluster"><title>cluster_0</title><polygon fill="none" stroke="#000" points="8 -247 8 -371 78 -371 78 -247 8 -247"/></g><g id="clust2" class="cluster"><title>cluster_1</title><polygon fill="none" stroke="#000" points="86 -247 86 -299 156 -299 156 -247 86 -247"/></g><g id="clust3" class="cluster"><title>cluster_2</title><polygon fill="none" stroke="#000" points="8 -175 8 -227 78 -227 78 -175 8 -175"/></g><g id="clust4" class="cluster"><title>cluster_3</title><polygon fill="none" stroke="#000" points="86 -103 86 -227 228 -227 228 -103 86 -103"/></g><g id="clust5" class="cluster"><title>cluster_4</title><polygon fill="none" stroke="#000" points="122 -31 122 -83 192 -83 192 -31 122 -31"/></g><g id="node1" class="node"><title>r</title><ellipse cx="43" cy="-345" fill="none" stroke="#000" rx="27" ry="18"/><text x="43" y="-341.3" font-family="Times,serif" font-size="14" text-anchor="middle">r</text></g><g id="node2" class="node"><title>a</title><ellipse cx="43" cy="-273" fill="none" stroke="#000" rx="27" ry="18"/><text x="43" y="-269.3" font-family="Times,serif" font-size="14" text-anchor="middle">a</text></g><g id="edge1" class="edge"><title>r-&gt;a</title><path fill="none" stroke="#000" d="M43,-326.7C43,-318.98 43,-309.71 43,-301.11"/><polygon fill="#000" stroke="#000" points="46.5 -301.1 43 -291.1 39.5 -301.1 46.5 -301.1"/></g><g id="node3" class="node"><title>b</title><ellipse cx="121" cy="-273" fill="none" stroke="#000" rx="27" ry="18"/><text x="121" y="-269.3" font-family="Times,serif" font-size="14" text-anchor="middle">b</text></g><g id="edge2" class="edge"><title>r-&gt;b</title><path fill="none" stroke="#000" d="M58.41,-330.17C69.73,-320.01 85.31,-306.03 98.09,-294.56"/><polygon fill="#000" stroke="#000" points="100.52 -297.09 105.62 -287.8 95.84 -291.88 100.52 -297.09"/></g><g id="node4" class="node"><title>c</title><ellipse cx="43" cy="-201" fill="none" stroke="#000" rx="27" ry="18"/><text x="43" y="-197.3" font-family="Times,serif" font-size="14" text-anchor="middle">c</text></g><g id="edge3" class="edge"><title>a-&gt;c</title><path fill="none" stroke="#000" d="M43,-254.7C43,-246.98 43,-237.71 43,-229.11"/><polygon fill="#000" stroke="#000" points="46.5 -229.1 43 -219.1 39.5 -229.1 46.5 -229.1"/></g><g id="edge4" class="edge"><title>b-&gt;c</title><path fill="none" stroke="#000" d="M105.59,-258.17C94.27,-248.01 78.69,-234.03 65.91,-222.56"/><polygon fill="#000" stroke="#000" points="68.16 -219.88 58.38 -215.8 63.48 -225.09 68.16 -219.88"/></g><g id="node5" class="node"><title>d</title><ellipse cx="121" cy="-201" fill="none" stroke="#000" rx="27" ry="18"/><text x="121" y="-197.3" font-family="Times,serif" font-size="14" text-anchor="middle">d</text></g><g id="edge5" class="edge"><title>b-&gt;d</title><path fill="none" stroke="#000" d="M126.84,-255.41C127.7,-247.51 127.95,-237.85 127.59,-228.94"/><polygon fill="#000" stroke="#000" points="131.08 -228.68 126.88 -218.96 124.1 -229.18 131.08 -228.68"/></g><g id="edge6" class="edge"><title>c-&gt;d</title><path fill="none" stroke="#000" d="M70.12,-201C74.71,-201 79.31,-201 83.91,-201"/><polygon fill="#000" stroke="#000" points="83.97 -204.5 93.97 -201 83.97 -197.5 83.97 -204.5"/></g><g id="edge7" class="edge"><title>d-&gt;b</title><path fill="none" stroke="#000" d="M115.12,-218.96C114.29,-226.83 114.05,-236.37 114.42,-245.19"/><polygon fill="#000" stroke="#000" points="110.94 -245.69 115.16 -255.41 117.93 -245.18 110.94 -245.69"/></g><g id="node6" class="node"><title>e</title><ellipse cx="121" cy="-129" fill="none" stroke="#000" rx="27" ry="18"/><text x="121" y="-125.3" font-family="Times,serif" font-size="14" text-anchor="middle">e</text></g><g id="edge8" class="edge"><title>d-&gt;e</title><path fill="none" stroke="#000" d="M121,-182.7C121,-174.98 121,-165.71 121,-157.11"/><polygon fill="#000" stroke="#000" points="124.5 -157.1 121 -147.1 117.5 -157.1 124.5 -157.1"/></g><g id="node7" class="node"><title>f</title><ellipse cx="193" cy="-129" fill="none" stroke="#000" rx="27" ry="18"/><text x="193" y="-125.3" font-family="Times,serif" font-size="14" text-anchor="middle">f</text></g><g id="edge9" class="edge"><title>d-&gt;f</title><path fill="none" stroke="#000" d="M135.57,-185.83C145.75,-175.94 159.52,-162.55 171.03,-151.36"/><polygon fill="#000" stroke="#000" points="173.47 -153.87 178.2 -144.38 168.59 -148.85 173.47 -153.87"/></g><g id="node8" class="node"><title>g</title><ellipse cx="157" cy="-57" fill="none" stroke="#000" rx="27" ry="18"/><text x="157" y="-53.3" font-family="Times,serif" font-size="14" text-anchor="middle">g</text></g><g id="edge10" class="edge"><title>e-&gt;g</title><path fill="none" stroke="#000" d="M129.35,-111.76C133.71,-103.28 139.15,-92.71 144.04,-83.2"/><polygon fill="#000" stroke="#000" points="147.23 -84.64 148.7 -74.15 141.01 -81.44 147.23 -84.64"/></g><g id="edge11" class="edge"><title>f-&gt;g</title><path fill="none" stroke="#000" d="M184.65,-111.76C180.29,-103.28 174.85,-92.71 169.96,-83.2"/><polygon fill="#000" stroke="#000" points="172.99 -81.44 165.3 -74.15 166.77 -84.64 172.99 -81.44"/></g></g></svg>