<svg xmlns="http://www.w3.org/2000/svg" xmlns:xlink="http://www.w3.org/1999/xlink" width="170pt" height="355pt" viewBox="0 0 170 355"><g id="graph0" class="graph" transform="scale(1 1) rotate(0) translate(4 351)"><title>%3</title><polygon fill="#fff" stroke="transparent" points="-4 4 -4 -351 166 -351 166 4 -4 4"/><text x="81" y="-7.8" font-family="Times,serif" font-size="14" text-anchor="middle">Successors</text><g id="node1" class="node"><title>r</title><ellipse cx="63" cy="-329" fill="none" stroke="#000" rx="27" ry="18"/><text x="63" y="-325.3" font-family="Times,serif" font-size="14" text-anchor="middle">r</text></g><g id="node2" class="node"><title>a</title><ellipse cx="27" cy="-257" fill="none" stroke="#000" rx="27" ry="18"/><text x="27" y="-253.3" font-family="Times,serif" font-size="14" text-anchor="middle">a</text></g><g id="edge1" class="edge"><title>r-&gt;a</title><path fill="none" stroke="#000" d="M54.65,-311.76C50.29,-303.28 44.85,-292.71 39.96,-283.2"/><polygon fill="#000" stroke="#000" points="42.99 -281.44 35.3 -274.15 36.77 -284.64 42.99 -281.44"/></g><g id="node3" class="node"><title>b</title><ellipse cx="99" cy="-257" fill="none" stroke="#000" rx="27" ry="18"/><text x="99" y="-253.3" font-family="Times,serif" font-size="14" text-anchor="middle">b</text></g><g id="edge2" class="edge"><title>r-&gt;b</title><path fill="none" stroke="#000" d="M71.35,-311.76C75.71,-303.28 81.15,-292.71 86.04,-283.2"/><polygon fill="#000" stroke="#000" points="89.23 -284.64 90.7 -274.15 83.01 -281.44 89.23 -284.64"/></g><g id="node4" class="node"><title>c</title><ellipse cx="27" cy="-185" fill="none" stroke="#000" rx="27" ry="18"/><text x="27" y="-181.3" font-family="Times,serif" font-size="14" text-anchor="middle">c</text></g><g id="edge3" class="edge"><title>a-&gt;c</title><path fill="none" stroke="#000" d="M27,-238.7C27,-230.98 27,-221.71 27,-213.11"/><polygon fill="#000" stroke="#000" points="30.5 -213.1 27 -203.1 23.5 -213.1 30.5 -213.1"/></g><g id="edge4" class="edge"><title>b-&gt;c</title><path fill="none" stroke="#000" d="M84.43,-241.83C74.25,-231.94 60.48,-218.55 48.97,-207.36"/><polygon fill="#000" stroke="#000" points="51.41 -204.85 41.8 -200.38 46.53 -209.87 51.41 -204.85"/></g><g id="node5" class="node"><title>d</title><ellipse cx="99" cy="-185" fill="none" stroke="#000" rx="27" ry="18"/><text x="99" y="-181.3" font-family="Times,serif" font-size="14" text-anchor="middle">d</text></g><g id="edge5" class="edge"><title>b-&gt;d</title><path fill="none" stroke="#000" d="M93.16,-239.41C92.3,-231.51 92.05,-221.85 92.41,-212.94"/><polygon fill="#000" stroke="#000" points="95.9 -213.18 93.12 -202.96 88.92 -212.68 95.9 -213.18"/></g><g id="edge6" class="edge"><title>c-&gt;d</title><path fill="none" stroke="#000" d="M54,-185C56.61,-185 59.23,-185 61.84,-185"/><polygon fill="#000" stroke="#000" points="61.93 -188.5 71.93 -185 61.93 -181.5 61.93 -188.5"/></g><g id="edge7" class="edge"><title>d-&gt;b</title><path fill="none" stroke="#000" d="M104.88,-202.96C105.71,-210.83 105.95,-220.37 105.58,-229.19"/><polygon fill="#000" stroke="#000" points="102.07 -229.18 104.84 -239.41 109.06 -229.69 102.07 -229.18"/></g><g id="node6" class="node"><title>e</title><ellipse cx="63" cy="-113" fill="none" stroke="#000" rx="27" ry="18"/><text x="63" y="-109.3" font-family="Times,serif" font-size="14" text-anchor="middle">e</text></g><g id="edge8" class="edge"><title>d-&gt;e</title><path fill="none" stroke="#000" d="M90.65,-167.76C86.29,-159.28 80.85,-148.71 75.96,-139.2"/><polygon fill="#000" stroke="#000" points="78.99 -137.44 71.3 -130.15 72.77 -140.64 78.99 -137.44"/></g><g id="node7" class="node"><title>f</title><ellipse cx="135" cy="-113" fill="none" stroke="#000" rx="27" ry="18"/><text x="135" y="-109.3" font-family="Times,serif" font-size="14" text-anchor="middle">f</text></g><g id="edge9" class="edge"><title>d-&gt;f</title><path fill="none" stroke="#000" d="M107.35,-167.76C111.71,-159.28 117.15,-148.71 122.04,-139.2"/><polygon fill="#000" stroke="#000" points="125.23 -140.64 126.7 -130.15 119.01 -137.44 125.23 -140.64"/></g><g id="node8" class="node"><title>g</title><ellipse cx="99" cy="-41" fill="none" stroke="#000" rx="27" ry="18"/><text x="99" y="-37.3" font-family="Times,serif" font-size="14" text-anchor="middle">g</text></g><g id="edge10" class="edge"><title>e-&gt;g</title><path fill="none" stroke="#000" d="M71.35,-95.76C75.71,-87.28 81.15,-76.71 86.04,-67.2"/><polygon fill="#000" stroke="#000" points="89.23 -68.64 90.7 -58.15 83.01 -65.44 89.23 -68.64"/></g><g id="edge11" class="edge"><title>f-&gt;g</title><path fill="none" stroke="#000" d="M126.65,-95.76C122.29,-87.28 116.85,-76.71 111.96,-67.2"/><polygon fill="#000" stroke="#000" points="114.99 -65.44 107.3 -58.15 108.77 -68.64 114.99 -65.44"/></g></g></svg>